<?xml version="1.0" encoding="UTF-8"?>
<svg width="752pt" height="752pt" version="1.1" viewBox="0 0 752 752" xmlns="http://www.w3.org/2000/svg">
 <defs>
  <clipPath id="b">
   <path d="m139.21 178h237.79v337h-237.79z"/>
  </clipPath>
  <clipPath id="a">
   <path d="m316 514h296.79v59h-296.79z"/>
  </clipPath>
 </defs>
 <path d="m37.602 0h676.8c20.766 0 37.602 20.766 37.602 37.602v676.8c0 20.766-16.836 37.602-37.602 37.602h-676.8c-20.766 0-37.602-20.766-37.602-37.602v-676.8c0-20.766 16.836-37.602 37.602-37.602z" fill="#fa5c00"/>
 <g clip-path="url(#b)">
  <path d="m370.08 334.56-191.41-152.73c-5.918-4.7344-14.602-3.9453-19.734 2.7617l-16.574 23.68c-4.7344 6.7109-2.7617 15.785 2.7617 20.523l136.16 108.92c4.7344 3.9453 4.7344 11.84 0 15.785l-136.16 108.53c-5.918 4.7344-7.8906 14.602-2.7617 20.523l16.578 25.652c4.7344 6.7109 13.812 7.8945 19.734 2.7617l191.41-152.73c7.8906-5.918 7.8906-17.758-0.003907-23.68z" fill="#fff"/>
 </g>
 <g clip-path="url(#a)">
  <path d="m597.8 514.13h-266.39c-7.8945 0-14.602 6.7109-14.602 14.602v29.598c0 7.8945 6.7109 14.602 14.602 14.602h266.39c7.8945 0 14.602-6.7109 14.602-14.602v-29.598c0.39453-7.8906-6.7109-14.602-14.602-14.602z" fill="#fff"/>
 </g>
</svg>
